<svg xmlns="http://www.w3.org/2000/svg" xmlns:xlink="http://www.w3.org/1999/xlink" version="1.1" x="0px" y="0px"
  viewBox="0 0 100 100" enable-background="new 0 0 100 100" xml:space="preserve"
  style="display: block; width: 100%; height: 100%; max-width: 100%; max-height: 100%;">
  <g>
    <g>
      <path
        d="M22.758,51.355c-5.252,0-9.525-4.39-9.525-9.785s4.273-9.785,9.525-9.785c5.251,0,9.523,4.39,9.523,9.785    S28.009,51.355,22.758,51.355z M22.758,35.785c-3.047,0-5.525,2.595-5.525,5.785c0,3.189,2.479,5.785,5.525,5.785    c3.045,0,5.523-2.595,5.523-5.785C28.281,38.38,25.804,35.785,22.758,35.785z">
      </path>
    </g>
    <g>
      <path
        d="M29.531,72.616H16.163c-1.104,0-2-0.896-2-2v-6.094h-2.639c-0.995,0-1.839-0.731-1.98-1.717    C9.462,62.24,8.81,57.175,10.8,53.56c2.228-4.043,6.538-6.27,12.135-6.27c5.485,0,9.73,2.227,11.954,6.271    c2.001,3.627,1.277,8.705,1.188,9.272c-0.153,0.973-0.991,1.689-1.976,1.689h-2.57v6.094    C31.531,71.721,30.635,72.616,29.531,72.616z M18.163,68.616h9.368v-6.094c0-1.104,0.896-2,2-2h2.732    c0.044-1.547-0.1-3.623-0.877-5.031c-1.512-2.75-4.433-4.201-8.45-4.201c-4.074,0-7.139,1.491-8.631,4.199    c-0.782,1.42-0.948,3.487-0.922,5.033h2.781c1.104,0,2,0.896,2,2V68.616z">
      </path>
    </g>
  </g>
  <g>
    <g>
      <path
        d="M76.024,51.355c-5.254,0-9.528-4.39-9.528-9.785s4.274-9.785,9.528-9.785c5.251,0,9.522,4.39,9.522,9.785    S81.275,51.355,76.024,51.355z M76.024,35.785c-3.048,0-5.528,2.595-5.528,5.785c0,3.189,2.48,5.785,5.528,5.785    c3.045,0,5.522-2.595,5.522-5.785C81.547,38.38,79.069,35.785,76.024,35.785z">
      </path>
    </g>
    <g>
      <path
        d="M82.793,72.616H69.428c-1.104,0-2-0.896-2-2v-6.094h-2.64c-0.995,0-1.839-0.731-1.979-1.717    c-0.081-0.565-0.733-5.63,1.256-9.25c2.228-4.043,6.536-6.27,12.134-6.27c5.488,0,9.735,2.227,11.959,6.27    c2,3.633,1.273,8.712,1.184,9.278c-0.153,0.973-0.991,1.688-1.976,1.688h-2.572v6.094C84.793,71.721,83.897,72.616,82.793,72.616z     M71.428,68.616h9.365v-6.094c0-1.104,0.896-2,2-2h2.735c0.045-1.548-0.099-3.627-0.875-5.038    c-1.511-2.747-4.435-4.199-8.455-4.199c-4.073,0-7.138,1.491-8.629,4.199c-0.782,1.423-0.948,3.491-0.923,5.038h2.781    c1.104,0,2,0.896,2,2V68.616z">
      </path>
    </g>
  </g>
  <g>
    <path
      d="M49.938,24.67c-5.256,0-9.532-4.39-9.532-9.785c0-5.397,4.276-9.788,9.532-9.788c5.251,0,9.522,4.391,9.522,9.788   C59.461,20.281,55.189,24.67,49.938,24.67z M49.938,9.098c-3.05,0-5.532,2.596-5.532,5.788c0,3.19,2.481,5.785,5.532,5.785   c3.045,0,5.522-2.595,5.522-5.785C55.461,11.694,52.983,9.098,49.938,9.098z">
    </path>
  </g>
  <g>
    <path
      d="M56.635,45.931H43.273c-1.104,0-2-0.896-2-2v-6.092h-2.642c-0.995,0-1.838-0.731-1.979-1.715   c-0.082-0.565-0.737-5.629,1.258-9.251c2.229-4.042,6.538-6.268,12.134-6.268c5.484,0,9.73,2.226,11.955,6.269   c2.004,3.635,1.277,8.711,1.188,9.278c-0.153,0.972-0.991,1.688-1.976,1.688h-2.575v6.092   C58.635,45.035,57.739,45.931,56.635,45.931z M45.273,41.931h9.362v-6.092c0-1.104,0.896-2,2-2h2.738   c0.044-1.546-0.1-3.624-0.879-5.036c-1.512-2.748-4.434-4.199-8.451-4.199c-4.072,0-7.137,1.491-8.63,4.199   c-0.784,1.423-0.95,3.491-0.924,5.036h2.784c1.104,0,2,0.896,2,2V41.931z">
    </path>
  </g>
  <g>
    <path
      d="M49.938,73.157c-5.252,0-9.525-4.39-9.525-9.786c0-5.394,4.273-9.782,9.525-9.782c5.251,0,9.522,4.389,9.522,9.782   C59.461,68.768,55.189,73.157,49.938,73.157z M49.938,57.589c-3.047,0-5.525,2.594-5.525,5.782c0,3.19,2.479,5.786,5.525,5.786   c3.045,0,5.522-2.596,5.522-5.786C55.461,60.183,52.983,57.589,49.938,57.589z">
    </path>
  </g>
  <g>
    <path
      d="M56.641,94.424H43.273c-1.104,0-2-0.896-2-2v-6.097h-2.642c-0.996,0-1.839-0.732-1.98-1.718   c-0.081-0.565-0.729-5.626,1.257-9.247c2.226-4.044,6.535-6.27,12.135-6.27c5.486,0,9.733,2.226,11.96,6.266   c1.998,3.639,1.271,8.714,1.182,9.28c-0.153,0.973-0.991,1.688-1.976,1.688h-2.569v6.097   C58.641,93.528,57.745,94.424,56.641,94.424z M45.273,90.424h9.368v-6.097c0-1.104,0.896-2,2-2h2.732   c0.045-1.547-0.098-3.626-0.874-5.04c-1.512-2.743-4.437-4.194-8.456-4.194c-4.076,0-7.141,1.49-8.63,4.195   c-0.775,1.414-0.942,3.487-0.918,5.039h2.778c1.104,0,2,0.896,2,2V90.424z">
    </path>
  </g>
</svg>