<svg xmlns="http://www.w3.org/2000/svg" xmlns:xlink="http://www.w3.org/1999/xlink" version="1.1" x="0px" y="0px"
  viewBox="0 0 100 100" enable-background="new 0 0 100 100" xml:space="preserve"
  style="display: block; width: 100%; height: 100%; max-width: 100%; max-height: 100%;">
  <g>
    <path
      d="M50.0024414,21.1547852c-15.9399414,0-28.9082031,12.9682617-28.9082031,28.9082031  S34.0625,78.9707031,50.0024414,78.9707031s28.9077148-12.9677734,28.9077148-28.9077148  S65.9423828,21.1547852,50.0024414,21.1547852z M64.4175415,72.7661133l-1.894104-3.2807617  c-0.2773438-0.4780273-0.887207-0.6430664-1.3662109-0.3662109c-0.4785156,0.2763672-0.6420898,0.8876953-0.3662109,1.3662109  l1.9030762,3.2963257c-3.4702759,1.8644409-7.394104,2.9868164-11.5598145,3.1602783v-3.7984009c0-0.5522461-0.4477539-1-1-1  s-1,0.4477539-1,1v3.8051147c-4.1702271-0.1331787-8.102478-1.2174683-11.5883179-3.0462036l1.8964233-3.28479  c0.2758789-0.4785156,0.1123047-1.0898438-0.3662109-1.3662109c-0.4799805-0.2768555-1.090332-0.112793-1.3662109,0.3662109  l-1.9002075,3.2913208c-3.4286499-2.1376953-6.3405762-5.0249023-8.5109253-8.4309082l3.2807617-1.894104  c0.4785156-0.2763672,0.6420898-0.8876953,0.3662109-1.3662109c-0.2773438-0.4785156-0.887207-0.6430664-1.3662109-0.3662109  l-3.2963257,1.9030762c-1.8644409-3.4702759-2.9868164-7.394104-3.1602783-11.5598145h3.7984009c0.5522461,0,1-0.4477539,1-1  s-0.4477539-1-1-1H23.116272c0.1331787-4.1702881,1.2174683-8.1026001,3.0463257-11.588501l3.284668,1.8966064  c0.1577148,0.0908203,0.3295898,0.1337891,0.4990234,0.1337891c0.3457031,0,0.6816406-0.1791992,0.8671875-0.5  c0.2758789-0.4780273,0.1123047-1.0898438-0.3662109-1.3662109l-3.2911987-1.9003906  c2.1376953-3.4284668,5.0249023-6.340332,8.4308472-8.5106201l1.894043,3.2806396c0.1855469,0.3208008,0.5214844,0.5,0.8671875,0.5  c0.1694336,0,0.3413086-0.0429688,0.4990234-0.1337891c0.4785156-0.2763672,0.6420898-0.8876953,0.3662109-1.3662109  l-1.9030151-3.2962646c3.4702759-1.8643799,7.394104-2.9868164,11.5597534-3.1603394v3.7984009c0,0.5522461,0.4477539,1,1,1  s1-0.4477539,1-1v-3.8051147c4.1703491,0.1330566,8.1026611,1.2174072,11.588562,3.0462646l-1.8966675,3.2852173  c-0.2758789,0.4785156-0.1123047,1.0898438,0.3662109,1.3662109c0.1577148,0.0908203,0.3295898,0.1337891,0.4990234,0.1337891  c0.3457031,0,0.6816406-0.1791992,0.8671875-0.5l1.9004517-3.291748c3.4284668,2.1376343,6.3403931,5.0249023,8.5106201,8.4309082  l-3.2807007,1.894043c-0.4785156,0.2763672-0.6420898,0.8876953-0.3662109,1.3662109  c0.1855469,0.3208008,0.5214844,0.5,0.8671875,0.5c0.1694336,0,0.3413086-0.0429688,0.4990234-0.1337891l3.2963257-1.9030762  c1.8643799,3.4702759,2.9867554,7.394104,3.1602783,11.5598145h-3.7984009c-0.5522461,0-1,0.4477539-1,1s0.4477539,1,1,1h3.8051147  c-0.1330566,4.1702881-1.2173462,8.1025391-3.0461426,11.5883789l-3.2848511-1.8964844  c-0.4794922-0.2763672-1.090332-0.1123047-1.3662109,0.3662109s-0.1123047,1.0898438,0.3662109,1.3662109l3.2914429,1.9002686  C70.7109375,67.6838989,67.8235474,70.5957642,64.4175415,72.7661133z">
    </path>
    <path
      d="M58.0458984,49.0629883h-7.043457V34.1508789c0-0.5522461-0.4477539-1-1-1s-1,0.4477539-1,1v15.9121094  c0,0.5522461,0.4477539,1,1,1h8.043457c0.5522461,0,1-0.4477539,1-1S58.5981445,49.0629883,58.0458984,49.0629883z">
    </path>
    <path
      d="M50.0024414,90.0629883c0.5522461,0,1-0.4477539,1-1s-0.4477539-1-1-1c-20.953125,0-38-17.046875-38-38s17.046875-38,38-38  s38,17.046875,38,38c0,11.3287964-4.9172974,21.8218994-13.5390625,29.0681152v-5.0690918c0-0.5522461-0.4477539-1-1-1  s-1,0.4477539-1,1V81.28125c0,0.5522461,0.4477539,1,1,1h7.421875c0.5522461,0,1-0.4477539,1-1s-0.4477539-1-1-1H76.210144  c8.7940674-7.6117554,13.7922974-18.4923096,13.7922974-30.2182617c0-22.0561523-17.9438477-40-40-40s-40,17.9438477-40,40  S27.9462891,90.0629883,50.0024414,90.0629883z">
    </path>
  </g>
</svg>