<svg xmlns="http://www.w3.org/2000/svg" xmlns:xlink="http://www.w3.org/1999/xlink" version="1.1" x="0px" y="0px"
  viewBox="0 0 64 64" style="display: block; width: 100%; height: 100%; max-width: 100%; max-height: 100%;"
  xml:space="preserve">
  <path
    d="M22,62h2v-8c0-1.654,1.346-3,3-3h10c1.654,0,3,1.346,3,3v8h2v-8c0-2.757-2.243-5-5-5h-0.54c0.954-1.063,1.54-2.462,1.54-4  c0-3.309-2.691-6-6-6s-6,2.691-6,6c0,1.538,0.586,2.937,1.54,4H27c-2.757,0-5,2.243-5,5V62z M28,45c0-2.206,1.794-4,4-4s4,1.794,4,4  s-1.794,4-4,4S28,47.206,28,45z">
  </path>
  <rect x="26" y="54" width="2" height="8"></rect>
  <rect x="36" y="54" width="2" height="8"></rect>
  <path
    d="M41.948,26.558c-0.119-0.355-0.427-0.615-0.797-0.671l-5.691-0.869l-2.555-5.442C32.74,19.224,32.388,19,32,19  s-0.74,0.224-0.905,0.575l-2.555,5.442l-5.691,0.869c-0.37,0.057-0.678,0.316-0.797,0.671s-0.029,0.748,0.232,1.016l4.147,4.25  l-0.981,6.015c-0.062,0.378,0.099,0.758,0.411,0.979c0.313,0.221,0.726,0.242,1.06,0.058L32,36.068l5.079,2.807  C37.229,38.958,37.396,39,37.562,39c0.202,0,0.404-0.062,0.576-0.183c0.312-0.221,0.473-0.601,0.411-0.979l-0.981-6.015l4.147-4.25  C41.978,27.306,42.067,26.914,41.948,26.558z M35.784,30.789c-0.222,0.227-0.322,0.546-0.271,0.859l0.731,4.48l-3.761-2.078  c-0.15-0.083-0.316-0.125-0.483-0.125s-0.333,0.042-0.483,0.125l-3.761,2.078l0.731-4.48c0.051-0.313-0.05-0.632-0.271-0.859  l-3.141-3.219l4.295-0.656c0.329-0.051,0.612-0.262,0.754-0.564L32,22.354l1.876,3.997c0.142,0.302,0.425,0.513,0.754,0.564  l4.295,0.656L35.784,30.789z">
  </path>
  <path
    d="M32,2c-6.432,0-12.511,2.007-17.654,5.776C13.686,7.294,12.879,7,12,7c-2.206,0-4,1.794-4,4  c0,0.804,0.243,1.549,0.652,2.177C4.36,18.496,2,25.145,2,32c0,6.431,2.007,12.51,5.776,17.654C7.294,50.315,7,51.121,7,52  c0,2.206,1.794,4,4,4c0.807,0,1.557-0.245,2.186-0.658c1.971,1.59,4.114,2.936,6.399,3.978l0.83-1.82  c-2.101-0.957-4.073-2.192-5.891-3.648C14.818,53.296,15,52.672,15,52c0-2.206-1.794-4-4-4c-0.601,0-1.166,0.143-1.677,0.381  C5.851,43.601,4,37.964,4,32c0-6.361,2.194-12.521,6.156-17.471C10.711,14.82,11.332,15,12,15c2.206,0,4-1.794,4-4  c0-0.601-0.143-1.165-0.381-1.677C20.398,5.851,26.035,4,32,4c15.439,0,28,12.561,28,28c0,4.304-0.954,8.401-2.813,12.2  C56.809,44.082,56.416,44,56,44c-2.206,0-4,1.794-4,4c0,0.975,0.365,1.858,0.947,2.553c-2.584,2.923-5.798,5.32-9.362,6.947  l0.83,1.819c3.878-1.771,7.37-4.392,10.162-7.593C55.02,51.896,55.497,52,56,52c2.206,0,4-1.794,4-4  c0-1.065-0.425-2.028-1.106-2.746C60.92,41.172,62,36.611,62,32C62,15.458,48.542,2,32,2z M13,52c0,1.103-0.897,2-2,2s-2-0.897-2-2  s0.897-2,2-2S13,50.897,13,52z M12,13c-1.103,0-2-0.897-2-2s0.897-2,2-2s2,0.897,2,2S13.103,13,12,13z M56,50c-1.103,0-2-0.897-2-2  s0.897-2,2-2s2,0.897,2,2S57.103,50,56,50z">
  </path>
  <path
    d="M45,13c-0.928,0-1.772,0.331-2.452,0.863C39.361,11.996,35.735,11,32,11c-11.579,0-21,9.42-21,21  c0,7.078,3.532,13.636,9.449,17.544l1.102-1.669C16.196,44.339,13,38.404,13,32c0-10.477,8.523-19,19-19  c3.29,0,6.486,0.852,9.312,2.455C41.112,15.931,41,16.452,41,17c0,2.206,1.794,4,4,4c0.747,0,1.439-0.219,2.038-0.577  C49.59,23.726,51,27.794,51,32c0,6.615-3.36,12.653-8.988,16.151l1.057,1.698C49.287,45.984,53,39.312,53,32  c0-4.741-1.62-9.325-4.548-13.015C48.791,18.398,49,17.726,49,17C49,14.794,47.206,13,45,13z M45,19c-1.103,0-2-0.897-2-2  s0.897-2,2-2s2,0.897,2,2S46.103,19,45,19z">
  </path>
</svg>